<svg height="480pt" viewBox="-16 0 480 480" width="480pt" xmlns="http://www.w3.org/2000/svg" xmlns:xlink="http://www.w3.org/1999/xlink"><linearGradient id="lg1"><stop offset="0" stop-color="#e93e3a"/><stop offset=".35" stop-color="#ed683c"/><stop offset=".7" stop-color="#f3903f"/><stop offset="1" stop-color="#fdc70c"/></linearGradient><linearGradient id="linear0" gradientUnits="userSpaceOnUse" x1="104" x2="104" xlink:href="#lg1" y1="499.176" y2="-12.872"/><linearGradient id="linear1" gradientUnits="userSpaceOnUse" x1="136" x2="136" xlink:href="#lg1" y1="499.176" y2="-12.872"/><linearGradient id="linear2" gradientUnits="userSpaceOnUse" x1="168" x2="168" xlink:href="#lg1" y1="499.176" y2="-12.872"/><linearGradient id="linear3" gradientUnits="userSpaceOnUse" x1="200" x2="200" xlink:href="#lg1" y1="499.176" y2="-12.872"/><linearGradient id="linear4" gradientUnits="userSpaceOnUse" x1="208" x2="208" xlink:href="#lg1" y1="499.176" y2="-12.872"/><linearGradient id="linear5" gradientUnits="userSpaceOnUse" x1="137.7308" x2="137.7308" xlink:href="#lg1" y1="499.17502" y2="-12.87298"/><linearGradient id="linear6" gradientUnits="userSpaceOnUse" x1="115.042545" x2="115.042545" xlink:href="#lg1" y1="499.176358" y2="-12.871642"/><linearGradient id="linear7" gradientUnits="userSpaceOnUse" x1="96.658966" x2="96.658966" xlink:href="#lg1" y1="499.173439" y2="-12.874561"/><linearGradient id="linear8" gradientUnits="userSpaceOnUse" x1="83.097337" x2="83.097337" xlink:href="#lg1" y1="499.17327" y2="-12.87473"/><linearGradient id="linear9" gradientUnits="userSpaceOnUse" x1="74.792215" x2="74.792215" xlink:href="#lg1" y1="499.179094" y2="-12.868906"/><linearGradient id="linear10" gradientUnits="userSpaceOnUse" x1="72" x2="72" xlink:href="#lg1" y1="499.176" y2="-12.872"/><linearGradient id="linear11" gradientUnits="userSpaceOnUse" x1="74.792238" x2="74.792238" xlink:href="#lg1" y1="499.174345" y2="-12.873655"/><linearGradient id="linear12" gradientUnits="userSpaceOnUse" x1="83.090751" x2="83.090751" xlink:href="#lg1" y1="499.177678" y2="-12.870322"/><linearGradient id="linear13" gradientUnits="userSpaceOnUse" x1="96.656997" x2="96.656997" xlink:href="#lg1" y1="499.17732" y2="-12.87068"/><linearGradient id="linear14" gradientUnits="userSpaceOnUse" x1="115.047438" x2="115.047438" xlink:href="#lg1" y1="499.176518" y2="-12.871482"/><linearGradient id="linear15" gradientUnits="userSpaceOnUse" x1="137.732657" x2="137.732657" xlink:href="#lg1" y1="499.176287" y2="-12.871713"/><linearGradient id="linear16" gradientUnits="userSpaceOnUse" x1="164.007539" x2="164.007539" xlink:href="#lg1" y1="499.178008" y2="-12.869992"/><linearGradient id="linear17" gradientUnits="userSpaceOnUse" x1="396.956298" x2="396.956298" xlink:href="#lg1" y1="499.178383" y2="-12.869617"/><linearGradient id="linear18" gradientUnits="userSpaceOnUse" x1="415.341316" x2="415.341316" xlink:href="#lg1" y1="499.173313" y2="-12.874687"/><linearGradient id="linear19" gradientUnits="userSpaceOnUse" x1="428.901003" x2="428.901003" xlink:href="#lg1" y1="499.176409" y2="-12.871591"/><linearGradient id="linear20" gradientUnits="userSpaceOnUse" x1="437.204871" x2="437.204871" xlink:href="#lg1" y1="499.170708" y2="-12.877292"/><linearGradient id="linear21" gradientUnits="userSpaceOnUse" x1="440" x2="440" xlink:href="#lg1" y1="499.176" y2="-12.872"/><linearGradient id="linear22" gradientUnits="userSpaceOnUse" x1="437.216558" x2="437.216558" xlink:href="#lg1" y1="499.17617" y2="-12.87183"/><linearGradient id="linear23" gradientUnits="userSpaceOnUse" x1="428.904966" x2="428.904966" xlink:href="#lg1" y1="499.17373" y2="-12.87427"/><linearGradient id="linear24" gradientUnits="userSpaceOnUse" x1="415.344089" x2="415.344089" xlink:href="#lg1" y1="499.175105" y2="-12.872895"/><linearGradient id="linear25" gradientUnits="userSpaceOnUse" x1="397.15873516" x2="397.15873516" xlink:href="#lg1" y1="499.25769108" y2="-12.89527876"/><linearGradient id="linear26" gradientUnits="userSpaceOnUse" x1="384" x2="384" xlink:href="#lg1" y1="499.176" y2="-12.872"/><linearGradient id="linear27" gradientUnits="userSpaceOnUse" x1="344" x2="344" xlink:href="#lg1" y1="499.176" y2="-12.872"/><linearGradient id="linear29" gradientUnits="userSpaceOnUse" x1="360" x2="360" xlink:href="#lg1" y1="499.176" y2="-12.872"/><linearGradient id="linear30" gradientUnits="userSpaceOnUse" x1="256" x2="256" xlink:href="#lg1" y1="499.176" y2="-12.872"/><linearGradient id="linear31" gradientUnits="userSpaceOnUse" x1="272" x2="272" xlink:href="#lg1" y1="499.176" y2="-12.872"/><path d="m96 72h16v16h-16zm0 0" fill="url(#linear0)"/><path d="m128 72h16v16h-16zm0 0" fill="url(#linear1)"/><path d="m160 72h16v16h-16zm0 0" fill="url(#linear2)"/><path d="m192 72h16v16h-16zm0 0" fill="url(#linear3)"/><path d="m416 272c-.09375-69.84375-45.402344-131.585938-112-152.625v-79.375c-.027344-22.082031-17.917969-39.9726562-40-40h-224c-22.082031.0273438-39.9726562 17.917969-40 40v400c.0273438 22.082031 17.917969 39.972656 40 40h224c22.082031-.027344 39.972656-17.917969 40-40v-15.375c66.597656-21.039062 111.90625-82.78125 112-152.625zm-16 0c0 79.527344-64.472656 144-144 144s-144-64.472656-144-144 64.472656-144 144-144c79.492188.09375 143.90625 64.507812 144 144zm-304-256h112v16c0 4.417969-3.582031 8-8 8h-96c-4.417969 0-8-3.582031-8-8zm192 424c0 13.253906-10.746094 24-24 24h-224c-13.253906 0-24-10.746094-24-24v-400c0-13.253906 10.746094-24 24-24h40v16c0 13.253906 10.746094 24 24 24h96c13.253906 0 24-10.746094 24-24v-16h40c13.253906 0 24 10.746094 24 24v75.199219c-63.570312-12.90625-128.644531 13.84375-164.757812 67.734375-36.109376 53.886718-36.109376 124.246094 0 178.132812 36.113281 53.890625 101.1875 80.640625 164.757812 67.734375zm0 0" fill="url(#linear4)"/><path d="m126.457031 130.058594 12.261719-10.285156 10.285156 12.257812-12.265625 10.285156zm0 0" fill="url(#linear5)"/><path d="m103.773438 154.71875 10.285156-12.257812 12.257812 10.28125-10.28125 12.261718zm0 0" fill="url(#linear6)"/><path d="m85.730469 182.921875 7.996093-13.847656 13.847657 7.996093-7.996094 13.847657zm0 0" fill="url(#linear7)"/><path d="m72.839844 213.847656 5.472656-15.035156 15.035156 5.46875-5.472656 15.035156zm0 0" fill="url(#linear8)"/><path d="m65.527344 246.542969 2.777344-15.757813 15.757812 2.777344-2.777344 15.757812zm0 0" fill="url(#linear9)"/><path d="m64 264h16v16h-16zm0 0" fill="url(#linear10)"/><path d="m65.527344 297.460938 15.753906-2.777344 2.777344 15.753906-15.753906 2.777344zm0 0" fill="url(#linear11)"/><path d="m72.835938 330.144531 15.035156-5.46875 5.472656 15.035157-15.035156 5.46875zm0 0" fill="url(#linear12)"/><path d="m85.730469 361.074219 13.847656-8 8 13.847656-13.847656 8zm0 0" fill="url(#linear13)"/><path d="m103.773438 389.285156 12.261718-10.28125 10.28125 12.257813-12.257812 10.28125zm0 0" fill="url(#linear14)"/><path d="m126.460938 413.941406 10.277343-12.261718 12.269531 10.285156-10.28125 12.261718zm0 0" fill="url(#linear15)"/><path d="m153.078125 434.285156 8-13.859375 13.855469 8-8 13.859375zm0 0" fill="url(#linear16)"/><path d="m385.683594 152.738281 12.257812-10.28125 10.28125 12.257813-12.257812 10.285156zm0 0" fill="url(#linear17)"/><path d="m404.425781 177.066406 13.847657-7.996094 7.996093 13.847657-13.847656 8zm0 0" fill="url(#linear18)"/><path d="m418.648438 204.28125 15.035156-5.46875 5.46875 15.035156-15.035156 5.46875zm0 0" fill="url(#linear19)"/><path d="m427.941406 233.554688 15.753906-2.777344 2.777344 15.753906-15.753906 2.777344zm0 0" fill="url(#linear20)"/><path d="m432 264h16v16h-16zm0 0" fill="url(#linear21)"/><path d="m427.945312 310.441406 2.777344-15.757812 15.757813 2.777344-2.777344 15.757812zm0 0" fill="url(#linear22)"/><path d="m418.648438 339.707031 5.46875-15.035156 15.035156 5.472656-5.46875 15.035157zm0 0" fill="url(#linear23)"/><path d="m404.421875 366.925781 8-13.851562 13.847656 8-8 13.847656zm0 0" fill="url(#linear24)"/><path d="m385.757812 391.367188 10.285157-12.253907 12.257812 10.285157-10.289062 12.257812zm0 0" fill="url(#linear25)"/><path d="m376 64h16v-16h16v-16h-16v-16h-16v16h-16v16h16zm0 0" fill="url(#linear26)"/><path d="m320 80h48v16h-48zm0 0" fill="url(#linear27)"/><path d="m360 112h48v16h-48zm0 0" fill="url(#linear26)"/><path d="m368 416h-16v16h-16v16h16v16h16v-16h16v-16h-16zm0 0" fill="url(#linear29)"/><path d="m152 208v128c0 4.417969 3.582031 8 8 8h192c4.417969 0 8-3.582031 8-8v-128c0-4.417969-3.582031-8-8-8h-192c-4.417969 0-8 3.582031-8 8zm16 8h176v112h-176zm0 0" fill="url(#linear30)"/><path d="m272 232c-22.089844 0-40 17.910156-40 40s17.910156 40 40 40 40-17.910156 40-40c-.027344-22.082031-17.917969-39.972656-40-40zm0 64c-13.253906 0-24-10.746094-24-24s10.746094-24 24-24 24 10.746094 24 24-10.746094 24-24 24zm0 0" fill="url(#linear31)"/><path d="m184 232h32v16h-32zm0 0" fill="url(#linear3)"/></svg>