<svg height="480pt" viewBox="-16 0 480 480" width="480pt" xmlns="http://www.w3.org/2000/svg"><path d="m96 72h16v16h-16zm0 0"/><path d="m128 72h16v16h-16zm0 0"/><path d="m160 72h16v16h-16zm0 0"/><path d="m192 72h16v16h-16zm0 0"/><path d="m416 272c-.09375-69.84375-45.402344-131.585938-112-152.625v-79.375c-.027344-22.082031-17.917969-39.9726562-40-40h-224c-22.082031.0273438-39.9726562 17.917969-40 40v400c.0273438 22.082031 17.917969 39.972656 40 40h224c22.082031-.027344 39.972656-17.917969 40-40v-15.375c66.597656-21.039062 111.90625-82.78125 112-152.625zm-16 0c0 79.527344-64.472656 144-144 144s-144-64.472656-144-144 64.472656-144 144-144c79.492188.09375 143.90625 64.507812 144 144zm-304-256h112v16c0 4.417969-3.582031 8-8 8h-96c-4.417969 0-8-3.582031-8-8zm192 424c0 13.253906-10.746094 24-24 24h-224c-13.253906 0-24-10.746094-24-24v-400c0-13.253906 10.746094-24 24-24h40v16c0 13.253906 10.746094 24 24 24h96c13.253906 0 24-10.746094 24-24v-16h40c13.253906 0 24 10.746094 24 24v75.199219c-63.570312-12.90625-128.644531 13.84375-164.757812 67.734375-36.109376 53.886718-36.109376 124.246094 0 178.132812 36.113281 53.890625 101.1875 80.640625 164.757812 67.734375zm0 0"/><path d="m126.457031 130.058594 12.261719-10.285156 10.285156 12.257812-12.265625 10.285156zm0 0"/><path d="m103.773438 154.71875 10.285156-12.257812 12.257812 10.28125-10.28125 12.261718zm0 0"/><path d="m85.730469 182.921875 7.996093-13.847656 13.847657 7.996093-7.996094 13.847657zm0 0"/><path d="m72.839844 213.847656 5.472656-15.035156 15.035156 5.46875-5.472656 15.035156zm0 0"/><path d="m65.527344 246.542969 2.777344-15.757813 15.757812 2.777344-2.777344 15.757812zm0 0"/><path d="m64 264h16v16h-16zm0 0"/><path d="m65.527344 297.460938 15.753906-2.777344 2.777344 15.753906-15.753906 2.777344zm0 0"/><path d="m72.835938 330.144531 15.035156-5.46875 5.472656 15.035157-15.035156 5.46875zm0 0"/><path d="m85.730469 361.074219 13.847656-8 8 13.847656-13.847656 8zm0 0"/><path d="m103.773438 389.285156 12.261718-10.28125 10.28125 12.257813-12.257812 10.28125zm0 0"/><path d="m126.460938 413.941406 10.277343-12.261718 12.269531 10.285156-10.28125 12.261718zm0 0"/><path d="m153.078125 434.285156 8-13.859375 13.855469 8-8 13.859375zm0 0"/><path d="m385.683594 152.738281 12.257812-10.28125 10.28125 12.257813-12.257812 10.285156zm0 0"/><path d="m404.425781 177.066406 13.847657-7.996094 7.996093 13.847657-13.847656 8zm0 0"/><path d="m418.648438 204.28125 15.035156-5.46875 5.46875 15.035156-15.035156 5.46875zm0 0"/><path d="m427.941406 233.554688 15.753906-2.777344 2.777344 15.753906-15.753906 2.777344zm0 0"/><path d="m432 264h16v16h-16zm0 0"/><path d="m427.945312 310.441406 2.777344-15.757812 15.757813 2.777344-2.777344 15.757812zm0 0"/><path d="m418.648438 339.707031 5.46875-15.035156 15.035156 5.472656-5.46875 15.035157zm0 0"/><path d="m404.421875 366.925781 8-13.851562 13.847656 8-8 13.847656zm0 0"/><path d="m385.757812 391.367188 10.285157-12.253907 12.257812 10.285157-10.289062 12.257812zm0 0"/><path d="m376 64h16v-16h16v-16h-16v-16h-16v16h-16v16h16zm0 0"/><path d="m320 80h48v16h-48zm0 0"/><path d="m360 112h48v16h-48zm0 0"/><path d="m368 416h-16v16h-16v16h16v16h16v-16h16v-16h-16zm0 0"/><path d="m152 208v128c0 4.417969 3.582031 8 8 8h192c4.417969 0 8-3.582031 8-8v-128c0-4.417969-3.582031-8-8-8h-192c-4.417969 0-8 3.582031-8 8zm16 8h176v112h-176zm0 0"/><path d="m272 232c-22.089844 0-40 17.910156-40 40s17.910156 40 40 40 40-17.910156 40-40c-.027344-22.082031-17.917969-39.972656-40-40zm0 64c-13.253906 0-24-10.746094-24-24s10.746094-24 24-24 24 10.746094 24 24-10.746094 24-24 24zm0 0"/><path d="m184 232h32v16h-32zm0 0"/></svg>