<svg height="480pt" viewBox="0 0 480 480" width="480pt" xmlns="http://www.w3.org/2000/svg" xmlns:xlink="http://www.w3.org/1999/xlink"><linearGradient id="lg1"><stop offset="0" stop-color="#e93e3a"/><stop offset=".35" stop-color="#ed683c"/><stop offset=".7" stop-color="#f3903f"/><stop offset="1" stop-color="#fdc70c"/></linearGradient><linearGradient id="linear0" gradientUnits="userSpaceOnUse" x1="240" x2="240" xlink:href="#lg1" y1="489.352" y2="-16.312"/><linearGradient id="linear3" gradientUnits="userSpaceOnUse" x1="424" x2="424" xlink:href="#lg1" y1="489.352" y2="-16.312"/><linearGradient id="linear4" gradientUnits="userSpaceOnUse" x1="56" x2="56" xlink:href="#lg1" y1="489.352" y2="-16.312"/><linearGradient id="linear5" gradientUnits="userSpaceOnUse" x1="88" x2="88" xlink:href="#lg1" y1="489.352" y2="-16.312"/><linearGradient id="linear6" gradientUnits="userSpaceOnUse" x1="120" x2="120" xlink:href="#lg1" y1="489.352" y2="-16.312"/><g fill="url(#linear0)"><path d="m240 272c44.183594 0 80-35.816406 80-80s-35.816406-80-80-80-80 35.816406-80 80c.046875 44.164062 35.835938 79.953125 80 80zm0-144c35.347656 0 64 28.652344 64 64s-28.652344 64-64 64-64-28.652344-64-64c.039062-35.328125 28.671875-63.960938 64-64zm0 0"/><path d="m232 179.3125v52.6875h16v-52.6875l18.34375 18.34375 11.3125-11.3125-32-32c-3.125-3.121094-8.1875-3.121094-11.3125 0l-32 32 11.3125 11.3125zm0 0"/><path d="m440 0h-400c-22.082031.0273438-39.9726562 17.917969-40 40v304c.0273438 22.082031 17.917969 39.972656 40 40h134.9375l-6 48h-16.9375c-13.253906 0-24 10.746094-24 24s10.746094 24 24 24h176c13.253906 0 24-10.746094 24-24s-10.746094-24-24-24h-16.9375l-6-48h134.9375c22.082031-.027344 39.972656-17.917969 40-40v-304c-.027344-22.082031-17.917969-39.9726562-40-40zm-400 16h400c13.253906 0 24 10.746094 24 24v24h-448v-24c0-13.253906 10.746094-24 24-24zm424 64v224h-448v-224zm-128 376c0 4.417969-3.582031 8-8 8h-176c-4.417969 0-8-3.582031-8-8s3.582031-8 8-8h176c4.417969 0 8 3.582031 8 8zm-41.0625-24h-109.875l6-48h97.875zm145.0625-64h-400c-13.253906 0-24-10.746094-24-24v-24h448v24c0 13.253906-10.746094 24-24 24zm0 0"/></g><path d="m416 336h16v16h-16zm0 0" fill="url(#linear3)"/><path d="m48 32h16v16h-16zm0 0" fill="url(#linear4)"/><path d="m80 32h16v16h-16zm0 0" fill="url(#linear5)"/><path d="m112 32h16v16h-16zm0 0" fill="url(#linear6)"/></svg>